G04 (created by PCBNEW (2013-07-07 BZR 4022)-stable) date 5/5/2015 11:01:01 PM*
%MOIN*%
G04 Gerber Fmt 3.4, Leading zero omitted, Abs format*
%FSLAX34Y34*%
G01*
G70*
G90*
G04 APERTURE LIST*
%ADD10C,0.00590551*%
%ADD11O,0.059X0.0885*%
%ADD12O,0.059X0.059*%
%ADD13R,0.06X0.06*%
%ADD14C,0.06*%
%ADD15C,0.125984*%
%ADD16R,0.0885X0.059*%
%ADD17O,0.0885X0.059*%
%ADD18R,0.114X0.059*%
G04 APERTURE END LIST*
G54D10*
G54D11*
X83250Y-28102D03*
X82750Y-28897D03*
X82250Y-28102D03*
X89750Y-21897D03*
X90250Y-21102D03*
X90750Y-21897D03*
G54D12*
X81750Y-22000D03*
X81750Y-26000D03*
X89250Y-28000D03*
X89250Y-24000D03*
X82750Y-22000D03*
X82750Y-26000D03*
X91250Y-28000D03*
X91250Y-24000D03*
X83750Y-22000D03*
X83750Y-26000D03*
X90250Y-28000D03*
X90250Y-24000D03*
G54D13*
X79500Y-23500D03*
G54D14*
X79500Y-24500D03*
X79500Y-25500D03*
X79500Y-26500D03*
G54D13*
X93500Y-23500D03*
G54D14*
X93500Y-24500D03*
X93500Y-25500D03*
X93500Y-26500D03*
G54D15*
X79500Y-21500D03*
X93500Y-21500D03*
X93500Y-28500D03*
X79500Y-28500D03*
G54D16*
X85147Y-26000D03*
G54D17*
X85147Y-27000D03*
X85147Y-28000D03*
X85147Y-29000D03*
X87852Y-29000D03*
X87852Y-28000D03*
X87852Y-26000D03*
X87852Y-27000D03*
G54D16*
X87852Y-24000D03*
G54D17*
X87852Y-23000D03*
X87852Y-22000D03*
X87852Y-21000D03*
X85147Y-21000D03*
X85147Y-22000D03*
X85147Y-24000D03*
X85147Y-23000D03*
G54D18*
X83475Y-27000D03*
X82025Y-27000D03*
X89525Y-23000D03*
X90975Y-23000D03*
M02*
