G04 (created by PCBNEW (2013-07-07 BZR 4022)-stable) date 5/5/2015 11:01:01 PM*
%MOIN*%
G04 Gerber Fmt 3.4, Leading zero omitted, Abs format*
%FSLAX34Y34*%
G01*
G70*
G90*
G04 APERTURE LIST*
%ADD10C,0.00590551*%
%ADD11O,0.059X0.0885*%
%ADD12O,0.059X0.059*%
%ADD13R,0.06X0.06*%
%ADD14C,0.06*%
%ADD15C,0.125984*%
%ADD16R,0.0885X0.059*%
%ADD17O,0.0885X0.059*%
%ADD18R,0.114X0.059*%
%ADD19C,0.01*%
G04 APERTURE END LIST*
G54D10*
G54D11*
X83250Y-28102D03*
X82750Y-28897D03*
X82250Y-28102D03*
X89750Y-21897D03*
X90250Y-21102D03*
X90750Y-21897D03*
G54D12*
X81750Y-22000D03*
X81750Y-26000D03*
X89250Y-28000D03*
X89250Y-24000D03*
X82750Y-22000D03*
X82750Y-26000D03*
X91250Y-28000D03*
X91250Y-24000D03*
X83750Y-22000D03*
X83750Y-26000D03*
X90250Y-28000D03*
X90250Y-24000D03*
G54D13*
X79500Y-23500D03*
G54D14*
X79500Y-24500D03*
X79500Y-25500D03*
X79500Y-26500D03*
G54D13*
X93500Y-23500D03*
G54D14*
X93500Y-24500D03*
X93500Y-25500D03*
X93500Y-26500D03*
G54D15*
X79500Y-21500D03*
X93500Y-21500D03*
X93500Y-28500D03*
X79500Y-28500D03*
G54D16*
X85147Y-26000D03*
G54D17*
X85147Y-27000D03*
X85147Y-28000D03*
X85147Y-29000D03*
X87852Y-29000D03*
X87852Y-28000D03*
X87852Y-26000D03*
X87852Y-27000D03*
G54D16*
X87852Y-24000D03*
G54D17*
X87852Y-23000D03*
X87852Y-22000D03*
X87852Y-21000D03*
X85147Y-21000D03*
X85147Y-22000D03*
X85147Y-24000D03*
X85147Y-23000D03*
G54D18*
X83475Y-27000D03*
X82025Y-27000D03*
X89525Y-23000D03*
X90975Y-23000D03*
G54D10*
G36*
X85950Y-29200D02*
X85813Y-29200D01*
X85853Y-29000D01*
X85853Y-27000D01*
X85853Y-24000D01*
X85812Y-23791D01*
X85693Y-23614D01*
X85522Y-23500D01*
X85693Y-23385D01*
X85812Y-23208D01*
X85853Y-23000D01*
X85812Y-22791D01*
X85693Y-22614D01*
X85522Y-22500D01*
X85693Y-22385D01*
X85812Y-22208D01*
X85853Y-22000D01*
X85812Y-21791D01*
X85693Y-21614D01*
X85517Y-21496D01*
X85512Y-21495D01*
X85549Y-21484D01*
X85715Y-21350D01*
X85817Y-21162D01*
X85823Y-21134D01*
X85774Y-21050D01*
X85197Y-21050D01*
X85197Y-21057D01*
X85097Y-21057D01*
X85097Y-21050D01*
X84520Y-21050D01*
X84471Y-21134D01*
X84477Y-21162D01*
X84579Y-21350D01*
X84745Y-21484D01*
X84782Y-21495D01*
X84777Y-21496D01*
X84601Y-21614D01*
X84482Y-21791D01*
X84441Y-22000D01*
X84482Y-22208D01*
X84601Y-22385D01*
X84772Y-22500D01*
X84601Y-22614D01*
X84482Y-22791D01*
X84441Y-23000D01*
X84482Y-23208D01*
X84601Y-23385D01*
X84772Y-23500D01*
X84601Y-23614D01*
X84482Y-23791D01*
X84441Y-24000D01*
X84482Y-24208D01*
X84601Y-24385D01*
X84777Y-24503D01*
X84986Y-24545D01*
X85308Y-24545D01*
X85517Y-24503D01*
X85693Y-24385D01*
X85812Y-24208D01*
X85853Y-24000D01*
X85853Y-27000D01*
X85812Y-26791D01*
X85693Y-26614D01*
X85589Y-26545D01*
X85639Y-26545D01*
X85731Y-26507D01*
X85801Y-26436D01*
X85839Y-26344D01*
X85840Y-26245D01*
X85840Y-25655D01*
X85802Y-25563D01*
X85731Y-25493D01*
X85639Y-25455D01*
X85540Y-25454D01*
X84655Y-25454D01*
X84563Y-25492D01*
X84493Y-25563D01*
X84455Y-25655D01*
X84454Y-25754D01*
X84454Y-26344D01*
X84492Y-26436D01*
X84563Y-26506D01*
X84655Y-26544D01*
X84705Y-26545D01*
X84601Y-26614D01*
X84482Y-26791D01*
X84441Y-27000D01*
X84482Y-27208D01*
X84601Y-27385D01*
X84777Y-27503D01*
X84782Y-27504D01*
X84745Y-27515D01*
X84579Y-27649D01*
X84477Y-27837D01*
X84471Y-27865D01*
X84520Y-27950D01*
X85097Y-27950D01*
X85097Y-27942D01*
X85197Y-27942D01*
X85197Y-27950D01*
X85774Y-27950D01*
X85823Y-27865D01*
X85817Y-27837D01*
X85715Y-27649D01*
X85549Y-27515D01*
X85512Y-27504D01*
X85517Y-27503D01*
X85693Y-27385D01*
X85812Y-27208D01*
X85853Y-27000D01*
X85853Y-29000D01*
X85812Y-28791D01*
X85693Y-28614D01*
X85517Y-28496D01*
X85512Y-28495D01*
X85549Y-28484D01*
X85715Y-28350D01*
X85817Y-28162D01*
X85823Y-28134D01*
X85774Y-28050D01*
X85197Y-28050D01*
X85197Y-28057D01*
X85097Y-28057D01*
X85097Y-28050D01*
X84520Y-28050D01*
X84471Y-28134D01*
X84477Y-28162D01*
X84579Y-28350D01*
X84745Y-28484D01*
X84782Y-28495D01*
X84777Y-28496D01*
X84601Y-28614D01*
X84482Y-28791D01*
X84441Y-29000D01*
X84481Y-29200D01*
X83266Y-29200D01*
X83295Y-29058D01*
X83295Y-28799D01*
X83458Y-28767D01*
X83635Y-28648D01*
X83753Y-28472D01*
X83795Y-28263D01*
X83795Y-27941D01*
X83753Y-27732D01*
X83635Y-27556D01*
X83618Y-27545D01*
X84094Y-27545D01*
X84186Y-27507D01*
X84256Y-27436D01*
X84294Y-27344D01*
X84295Y-27245D01*
X84295Y-26655D01*
X84257Y-26563D01*
X84186Y-26493D01*
X84094Y-26455D01*
X84047Y-26455D01*
X84135Y-26396D01*
X84253Y-26219D01*
X84295Y-26010D01*
X84295Y-25989D01*
X84295Y-22010D01*
X84295Y-21989D01*
X84253Y-21780D01*
X84135Y-21603D01*
X83958Y-21485D01*
X83750Y-21444D01*
X83541Y-21485D01*
X83364Y-21603D01*
X83250Y-21775D01*
X83135Y-21603D01*
X82958Y-21485D01*
X82750Y-21444D01*
X82541Y-21485D01*
X82364Y-21603D01*
X82250Y-21775D01*
X82135Y-21603D01*
X81958Y-21485D01*
X81750Y-21444D01*
X81541Y-21485D01*
X81364Y-21603D01*
X81246Y-21780D01*
X81205Y-21989D01*
X81205Y-22010D01*
X81246Y-22219D01*
X81364Y-22396D01*
X81541Y-22514D01*
X81750Y-22555D01*
X81958Y-22514D01*
X82135Y-22396D01*
X82250Y-22224D01*
X82364Y-22396D01*
X82541Y-22514D01*
X82750Y-22555D01*
X82958Y-22514D01*
X83135Y-22396D01*
X83250Y-22224D01*
X83364Y-22396D01*
X83541Y-22514D01*
X83750Y-22555D01*
X83958Y-22514D01*
X84135Y-22396D01*
X84253Y-22219D01*
X84295Y-22010D01*
X84295Y-25989D01*
X84253Y-25780D01*
X84135Y-25603D01*
X83958Y-25485D01*
X83750Y-25444D01*
X83541Y-25485D01*
X83364Y-25603D01*
X83250Y-25775D01*
X83135Y-25603D01*
X82958Y-25485D01*
X82750Y-25444D01*
X82541Y-25485D01*
X82364Y-25603D01*
X82250Y-25775D01*
X82135Y-25603D01*
X81958Y-25485D01*
X81750Y-25444D01*
X81541Y-25485D01*
X81364Y-25603D01*
X81246Y-25780D01*
X81205Y-25989D01*
X81205Y-26010D01*
X81246Y-26219D01*
X81364Y-26396D01*
X81452Y-26454D01*
X81405Y-26454D01*
X81313Y-26492D01*
X81243Y-26563D01*
X81205Y-26655D01*
X81204Y-26754D01*
X81205Y-26887D01*
X81267Y-26950D01*
X81975Y-26950D01*
X81975Y-26942D01*
X82075Y-26942D01*
X82075Y-26950D01*
X82082Y-26950D01*
X82082Y-27050D01*
X82075Y-27050D01*
X82075Y-27057D01*
X81975Y-27057D01*
X81975Y-27050D01*
X81267Y-27050D01*
X81205Y-27112D01*
X81204Y-27245D01*
X81205Y-27344D01*
X81243Y-27436D01*
X81313Y-27507D01*
X81405Y-27545D01*
X81881Y-27545D01*
X81864Y-27556D01*
X81746Y-27732D01*
X81705Y-27941D01*
X81705Y-28263D01*
X81746Y-28472D01*
X81864Y-28648D01*
X82041Y-28767D01*
X82205Y-28799D01*
X82205Y-29058D01*
X82233Y-29200D01*
X80044Y-29200D01*
X80245Y-28999D01*
X80379Y-28675D01*
X80380Y-28325D01*
X80246Y-28002D01*
X80054Y-27810D01*
X80054Y-26581D01*
X80050Y-26488D01*
X80050Y-25391D01*
X79966Y-25188D01*
X79811Y-25034D01*
X79730Y-25000D01*
X79811Y-24966D01*
X79965Y-24811D01*
X80049Y-24609D01*
X80050Y-24391D01*
X79966Y-24188D01*
X79827Y-24050D01*
X79849Y-24050D01*
X79941Y-24012D01*
X80011Y-23941D01*
X80049Y-23849D01*
X80050Y-23750D01*
X80050Y-23150D01*
X80012Y-23058D01*
X79941Y-22988D01*
X79849Y-22950D01*
X79750Y-22949D01*
X79150Y-22949D01*
X79058Y-22987D01*
X78988Y-23058D01*
X78950Y-23150D01*
X78949Y-23249D01*
X78949Y-23849D01*
X78987Y-23941D01*
X79058Y-24011D01*
X79150Y-24049D01*
X79172Y-24049D01*
X79034Y-24188D01*
X78950Y-24390D01*
X78949Y-24608D01*
X79033Y-24811D01*
X79188Y-24965D01*
X79269Y-24999D01*
X79188Y-25033D01*
X79034Y-25188D01*
X78950Y-25390D01*
X78949Y-25608D01*
X79033Y-25811D01*
X79188Y-25965D01*
X79263Y-25997D01*
X79212Y-26018D01*
X79184Y-26114D01*
X79500Y-26429D01*
X79815Y-26114D01*
X79787Y-26018D01*
X79732Y-25999D01*
X79811Y-25966D01*
X79965Y-25811D01*
X80049Y-25609D01*
X80050Y-25391D01*
X80050Y-26488D01*
X80043Y-26363D01*
X79981Y-26212D01*
X79885Y-26184D01*
X79570Y-26500D01*
X79885Y-26815D01*
X79981Y-26787D01*
X80054Y-26581D01*
X80054Y-27810D01*
X79999Y-27754D01*
X79815Y-27678D01*
X79815Y-26885D01*
X79500Y-26570D01*
X79429Y-26641D01*
X79429Y-26500D01*
X79114Y-26184D01*
X79018Y-26212D01*
X78945Y-26418D01*
X78956Y-26636D01*
X79018Y-26787D01*
X79114Y-26815D01*
X79429Y-26500D01*
X79429Y-26641D01*
X79184Y-26885D01*
X79212Y-26981D01*
X79418Y-27054D01*
X79636Y-27043D01*
X79787Y-26981D01*
X79815Y-26885D01*
X79815Y-27678D01*
X79675Y-27620D01*
X79325Y-27619D01*
X79002Y-27753D01*
X78800Y-27955D01*
X78800Y-22044D01*
X79000Y-22245D01*
X79324Y-22379D01*
X79674Y-22380D01*
X79997Y-22246D01*
X80245Y-21999D01*
X80379Y-21675D01*
X80380Y-21325D01*
X80246Y-21002D01*
X80044Y-20800D01*
X84497Y-20800D01*
X84477Y-20837D01*
X84471Y-20865D01*
X84520Y-20950D01*
X85097Y-20950D01*
X85097Y-20942D01*
X85197Y-20942D01*
X85197Y-20950D01*
X85774Y-20950D01*
X85823Y-20865D01*
X85817Y-20837D01*
X85797Y-20800D01*
X85950Y-20800D01*
X85950Y-29200D01*
X85950Y-29200D01*
G37*
G54D19*
X85950Y-29200D02*
X85813Y-29200D01*
X85853Y-29000D01*
X85853Y-27000D01*
X85853Y-24000D01*
X85812Y-23791D01*
X85693Y-23614D01*
X85522Y-23500D01*
X85693Y-23385D01*
X85812Y-23208D01*
X85853Y-23000D01*
X85812Y-22791D01*
X85693Y-22614D01*
X85522Y-22500D01*
X85693Y-22385D01*
X85812Y-22208D01*
X85853Y-22000D01*
X85812Y-21791D01*
X85693Y-21614D01*
X85517Y-21496D01*
X85512Y-21495D01*
X85549Y-21484D01*
X85715Y-21350D01*
X85817Y-21162D01*
X85823Y-21134D01*
X85774Y-21050D01*
X85197Y-21050D01*
X85197Y-21057D01*
X85097Y-21057D01*
X85097Y-21050D01*
X84520Y-21050D01*
X84471Y-21134D01*
X84477Y-21162D01*
X84579Y-21350D01*
X84745Y-21484D01*
X84782Y-21495D01*
X84777Y-21496D01*
X84601Y-21614D01*
X84482Y-21791D01*
X84441Y-22000D01*
X84482Y-22208D01*
X84601Y-22385D01*
X84772Y-22500D01*
X84601Y-22614D01*
X84482Y-22791D01*
X84441Y-23000D01*
X84482Y-23208D01*
X84601Y-23385D01*
X84772Y-23500D01*
X84601Y-23614D01*
X84482Y-23791D01*
X84441Y-24000D01*
X84482Y-24208D01*
X84601Y-24385D01*
X84777Y-24503D01*
X84986Y-24545D01*
X85308Y-24545D01*
X85517Y-24503D01*
X85693Y-24385D01*
X85812Y-24208D01*
X85853Y-24000D01*
X85853Y-27000D01*
X85812Y-26791D01*
X85693Y-26614D01*
X85589Y-26545D01*
X85639Y-26545D01*
X85731Y-26507D01*
X85801Y-26436D01*
X85839Y-26344D01*
X85840Y-26245D01*
X85840Y-25655D01*
X85802Y-25563D01*
X85731Y-25493D01*
X85639Y-25455D01*
X85540Y-25454D01*
X84655Y-25454D01*
X84563Y-25492D01*
X84493Y-25563D01*
X84455Y-25655D01*
X84454Y-25754D01*
X84454Y-26344D01*
X84492Y-26436D01*
X84563Y-26506D01*
X84655Y-26544D01*
X84705Y-26545D01*
X84601Y-26614D01*
X84482Y-26791D01*
X84441Y-27000D01*
X84482Y-27208D01*
X84601Y-27385D01*
X84777Y-27503D01*
X84782Y-27504D01*
X84745Y-27515D01*
X84579Y-27649D01*
X84477Y-27837D01*
X84471Y-27865D01*
X84520Y-27950D01*
X85097Y-27950D01*
X85097Y-27942D01*
X85197Y-27942D01*
X85197Y-27950D01*
X85774Y-27950D01*
X85823Y-27865D01*
X85817Y-27837D01*
X85715Y-27649D01*
X85549Y-27515D01*
X85512Y-27504D01*
X85517Y-27503D01*
X85693Y-27385D01*
X85812Y-27208D01*
X85853Y-27000D01*
X85853Y-29000D01*
X85812Y-28791D01*
X85693Y-28614D01*
X85517Y-28496D01*
X85512Y-28495D01*
X85549Y-28484D01*
X85715Y-28350D01*
X85817Y-28162D01*
X85823Y-28134D01*
X85774Y-28050D01*
X85197Y-28050D01*
X85197Y-28057D01*
X85097Y-28057D01*
X85097Y-28050D01*
X84520Y-28050D01*
X84471Y-28134D01*
X84477Y-28162D01*
X84579Y-28350D01*
X84745Y-28484D01*
X84782Y-28495D01*
X84777Y-28496D01*
X84601Y-28614D01*
X84482Y-28791D01*
X84441Y-29000D01*
X84481Y-29200D01*
X83266Y-29200D01*
X83295Y-29058D01*
X83295Y-28799D01*
X83458Y-28767D01*
X83635Y-28648D01*
X83753Y-28472D01*
X83795Y-28263D01*
X83795Y-27941D01*
X83753Y-27732D01*
X83635Y-27556D01*
X83618Y-27545D01*
X84094Y-27545D01*
X84186Y-27507D01*
X84256Y-27436D01*
X84294Y-27344D01*
X84295Y-27245D01*
X84295Y-26655D01*
X84257Y-26563D01*
X84186Y-26493D01*
X84094Y-26455D01*
X84047Y-26455D01*
X84135Y-26396D01*
X84253Y-26219D01*
X84295Y-26010D01*
X84295Y-25989D01*
X84295Y-22010D01*
X84295Y-21989D01*
X84253Y-21780D01*
X84135Y-21603D01*
X83958Y-21485D01*
X83750Y-21444D01*
X83541Y-21485D01*
X83364Y-21603D01*
X83250Y-21775D01*
X83135Y-21603D01*
X82958Y-21485D01*
X82750Y-21444D01*
X82541Y-21485D01*
X82364Y-21603D01*
X82250Y-21775D01*
X82135Y-21603D01*
X81958Y-21485D01*
X81750Y-21444D01*
X81541Y-21485D01*
X81364Y-21603D01*
X81246Y-21780D01*
X81205Y-21989D01*
X81205Y-22010D01*
X81246Y-22219D01*
X81364Y-22396D01*
X81541Y-22514D01*
X81750Y-22555D01*
X81958Y-22514D01*
X82135Y-22396D01*
X82250Y-22224D01*
X82364Y-22396D01*
X82541Y-22514D01*
X82750Y-22555D01*
X82958Y-22514D01*
X83135Y-22396D01*
X83250Y-22224D01*
X83364Y-22396D01*
X83541Y-22514D01*
X83750Y-22555D01*
X83958Y-22514D01*
X84135Y-22396D01*
X84253Y-22219D01*
X84295Y-22010D01*
X84295Y-25989D01*
X84253Y-25780D01*
X84135Y-25603D01*
X83958Y-25485D01*
X83750Y-25444D01*
X83541Y-25485D01*
X83364Y-25603D01*
X83250Y-25775D01*
X83135Y-25603D01*
X82958Y-25485D01*
X82750Y-25444D01*
X82541Y-25485D01*
X82364Y-25603D01*
X82250Y-25775D01*
X82135Y-25603D01*
X81958Y-25485D01*
X81750Y-25444D01*
X81541Y-25485D01*
X81364Y-25603D01*
X81246Y-25780D01*
X81205Y-25989D01*
X81205Y-26010D01*
X81246Y-26219D01*
X81364Y-26396D01*
X81452Y-26454D01*
X81405Y-26454D01*
X81313Y-26492D01*
X81243Y-26563D01*
X81205Y-26655D01*
X81204Y-26754D01*
X81205Y-26887D01*
X81267Y-26950D01*
X81975Y-26950D01*
X81975Y-26942D01*
X82075Y-26942D01*
X82075Y-26950D01*
X82082Y-26950D01*
X82082Y-27050D01*
X82075Y-27050D01*
X82075Y-27057D01*
X81975Y-27057D01*
X81975Y-27050D01*
X81267Y-27050D01*
X81205Y-27112D01*
X81204Y-27245D01*
X81205Y-27344D01*
X81243Y-27436D01*
X81313Y-27507D01*
X81405Y-27545D01*
X81881Y-27545D01*
X81864Y-27556D01*
X81746Y-27732D01*
X81705Y-27941D01*
X81705Y-28263D01*
X81746Y-28472D01*
X81864Y-28648D01*
X82041Y-28767D01*
X82205Y-28799D01*
X82205Y-29058D01*
X82233Y-29200D01*
X80044Y-29200D01*
X80245Y-28999D01*
X80379Y-28675D01*
X80380Y-28325D01*
X80246Y-28002D01*
X80054Y-27810D01*
X80054Y-26581D01*
X80050Y-26488D01*
X80050Y-25391D01*
X79966Y-25188D01*
X79811Y-25034D01*
X79730Y-25000D01*
X79811Y-24966D01*
X79965Y-24811D01*
X80049Y-24609D01*
X80050Y-24391D01*
X79966Y-24188D01*
X79827Y-24050D01*
X79849Y-24050D01*
X79941Y-24012D01*
X80011Y-23941D01*
X80049Y-23849D01*
X80050Y-23750D01*
X80050Y-23150D01*
X80012Y-23058D01*
X79941Y-22988D01*
X79849Y-22950D01*
X79750Y-22949D01*
X79150Y-22949D01*
X79058Y-22987D01*
X78988Y-23058D01*
X78950Y-23150D01*
X78949Y-23249D01*
X78949Y-23849D01*
X78987Y-23941D01*
X79058Y-24011D01*
X79150Y-24049D01*
X79172Y-24049D01*
X79034Y-24188D01*
X78950Y-24390D01*
X78949Y-24608D01*
X79033Y-24811D01*
X79188Y-24965D01*
X79269Y-24999D01*
X79188Y-25033D01*
X79034Y-25188D01*
X78950Y-25390D01*
X78949Y-25608D01*
X79033Y-25811D01*
X79188Y-25965D01*
X79263Y-25997D01*
X79212Y-26018D01*
X79184Y-26114D01*
X79500Y-26429D01*
X79815Y-26114D01*
X79787Y-26018D01*
X79732Y-25999D01*
X79811Y-25966D01*
X79965Y-25811D01*
X80049Y-25609D01*
X80050Y-25391D01*
X80050Y-26488D01*
X80043Y-26363D01*
X79981Y-26212D01*
X79885Y-26184D01*
X79570Y-26500D01*
X79885Y-26815D01*
X79981Y-26787D01*
X80054Y-26581D01*
X80054Y-27810D01*
X79999Y-27754D01*
X79815Y-27678D01*
X79815Y-26885D01*
X79500Y-26570D01*
X79429Y-26641D01*
X79429Y-26500D01*
X79114Y-26184D01*
X79018Y-26212D01*
X78945Y-26418D01*
X78956Y-26636D01*
X79018Y-26787D01*
X79114Y-26815D01*
X79429Y-26500D01*
X79429Y-26641D01*
X79184Y-26885D01*
X79212Y-26981D01*
X79418Y-27054D01*
X79636Y-27043D01*
X79787Y-26981D01*
X79815Y-26885D01*
X79815Y-27678D01*
X79675Y-27620D01*
X79325Y-27619D01*
X79002Y-27753D01*
X78800Y-27955D01*
X78800Y-22044D01*
X79000Y-22245D01*
X79324Y-22379D01*
X79674Y-22380D01*
X79997Y-22246D01*
X80245Y-21999D01*
X80379Y-21675D01*
X80380Y-21325D01*
X80246Y-21002D01*
X80044Y-20800D01*
X84497Y-20800D01*
X84477Y-20837D01*
X84471Y-20865D01*
X84520Y-20950D01*
X85097Y-20950D01*
X85097Y-20942D01*
X85197Y-20942D01*
X85197Y-20950D01*
X85774Y-20950D01*
X85823Y-20865D01*
X85817Y-20837D01*
X85797Y-20800D01*
X85950Y-20800D01*
X85950Y-29200D01*
G54D10*
G36*
X94200Y-27955D02*
X94054Y-27810D01*
X94054Y-26581D01*
X94050Y-26488D01*
X94050Y-25391D01*
X93966Y-25188D01*
X93811Y-25034D01*
X93730Y-25000D01*
X93811Y-24966D01*
X93965Y-24811D01*
X94049Y-24609D01*
X94050Y-24391D01*
X93966Y-24188D01*
X93827Y-24050D01*
X93849Y-24050D01*
X93941Y-24012D01*
X94011Y-23941D01*
X94049Y-23849D01*
X94050Y-23750D01*
X94050Y-23150D01*
X94012Y-23058D01*
X93941Y-22988D01*
X93849Y-22950D01*
X93750Y-22949D01*
X93150Y-22949D01*
X93058Y-22987D01*
X92988Y-23058D01*
X92950Y-23150D01*
X92949Y-23249D01*
X92949Y-23849D01*
X92987Y-23941D01*
X93058Y-24011D01*
X93150Y-24049D01*
X93172Y-24049D01*
X93034Y-24188D01*
X92950Y-24390D01*
X92949Y-24608D01*
X93033Y-24811D01*
X93188Y-24965D01*
X93269Y-24999D01*
X93188Y-25033D01*
X93034Y-25188D01*
X92950Y-25390D01*
X92949Y-25608D01*
X93033Y-25811D01*
X93188Y-25965D01*
X93263Y-25997D01*
X93212Y-26018D01*
X93184Y-26114D01*
X93500Y-26429D01*
X93815Y-26114D01*
X93787Y-26018D01*
X93732Y-25999D01*
X93811Y-25966D01*
X93965Y-25811D01*
X94049Y-25609D01*
X94050Y-25391D01*
X94050Y-26488D01*
X94043Y-26363D01*
X93981Y-26212D01*
X93885Y-26184D01*
X93570Y-26500D01*
X93885Y-26815D01*
X93981Y-26787D01*
X94054Y-26581D01*
X94054Y-27810D01*
X93999Y-27754D01*
X93815Y-27678D01*
X93815Y-26885D01*
X93500Y-26570D01*
X93429Y-26641D01*
X93429Y-26500D01*
X93114Y-26184D01*
X93018Y-26212D01*
X92945Y-26418D01*
X92956Y-26636D01*
X93018Y-26787D01*
X93114Y-26815D01*
X93429Y-26500D01*
X93429Y-26641D01*
X93184Y-26885D01*
X93212Y-26981D01*
X93418Y-27054D01*
X93636Y-27043D01*
X93787Y-26981D01*
X93815Y-26885D01*
X93815Y-27678D01*
X93675Y-27620D01*
X93325Y-27619D01*
X93002Y-27753D01*
X92754Y-28000D01*
X92620Y-28324D01*
X92619Y-28674D01*
X92753Y-28997D01*
X92955Y-29200D01*
X91795Y-29200D01*
X91795Y-28010D01*
X91795Y-27989D01*
X91753Y-27780D01*
X91635Y-27603D01*
X91458Y-27485D01*
X91250Y-27444D01*
X91041Y-27485D01*
X90864Y-27603D01*
X90750Y-27775D01*
X90635Y-27603D01*
X90458Y-27485D01*
X90250Y-27444D01*
X90041Y-27485D01*
X89864Y-27603D01*
X89750Y-27775D01*
X89635Y-27603D01*
X89458Y-27485D01*
X89250Y-27444D01*
X89041Y-27485D01*
X88864Y-27603D01*
X88746Y-27780D01*
X88705Y-27989D01*
X88705Y-28010D01*
X88746Y-28219D01*
X88864Y-28396D01*
X89041Y-28514D01*
X89250Y-28555D01*
X89458Y-28514D01*
X89635Y-28396D01*
X89750Y-28224D01*
X89864Y-28396D01*
X90041Y-28514D01*
X90250Y-28555D01*
X90458Y-28514D01*
X90635Y-28396D01*
X90750Y-28224D01*
X90864Y-28396D01*
X91041Y-28514D01*
X91250Y-28555D01*
X91458Y-28514D01*
X91635Y-28396D01*
X91753Y-28219D01*
X91795Y-28010D01*
X91795Y-29200D01*
X88558Y-29200D01*
X88558Y-28000D01*
X88517Y-27791D01*
X88398Y-27614D01*
X88227Y-27500D01*
X88398Y-27385D01*
X88517Y-27208D01*
X88558Y-27000D01*
X88517Y-26791D01*
X88398Y-26614D01*
X88227Y-26500D01*
X88398Y-26385D01*
X88517Y-26208D01*
X88558Y-26000D01*
X88558Y-23000D01*
X88517Y-22791D01*
X88398Y-22614D01*
X88222Y-22496D01*
X88217Y-22495D01*
X88254Y-22484D01*
X88420Y-22350D01*
X88522Y-22162D01*
X88528Y-22134D01*
X88479Y-22050D01*
X87902Y-22050D01*
X87902Y-22057D01*
X87802Y-22057D01*
X87802Y-22050D01*
X87225Y-22050D01*
X87176Y-22134D01*
X87182Y-22162D01*
X87284Y-22350D01*
X87450Y-22484D01*
X87487Y-22495D01*
X87482Y-22496D01*
X87306Y-22614D01*
X87187Y-22791D01*
X87146Y-23000D01*
X87187Y-23208D01*
X87306Y-23385D01*
X87410Y-23454D01*
X87360Y-23454D01*
X87268Y-23492D01*
X87198Y-23563D01*
X87160Y-23655D01*
X87159Y-23754D01*
X87159Y-24344D01*
X87197Y-24436D01*
X87268Y-24506D01*
X87360Y-24544D01*
X87459Y-24545D01*
X88344Y-24545D01*
X88436Y-24507D01*
X88506Y-24436D01*
X88544Y-24344D01*
X88545Y-24245D01*
X88545Y-23655D01*
X88507Y-23563D01*
X88436Y-23493D01*
X88344Y-23455D01*
X88294Y-23454D01*
X88398Y-23385D01*
X88517Y-23208D01*
X88558Y-23000D01*
X88558Y-26000D01*
X88517Y-25791D01*
X88398Y-25614D01*
X88222Y-25496D01*
X88013Y-25455D01*
X87691Y-25455D01*
X87482Y-25496D01*
X87306Y-25614D01*
X87187Y-25791D01*
X87146Y-26000D01*
X87187Y-26208D01*
X87306Y-26385D01*
X87477Y-26500D01*
X87306Y-26614D01*
X87187Y-26791D01*
X87146Y-27000D01*
X87187Y-27208D01*
X87306Y-27385D01*
X87477Y-27500D01*
X87306Y-27614D01*
X87187Y-27791D01*
X87146Y-28000D01*
X87187Y-28208D01*
X87306Y-28385D01*
X87482Y-28503D01*
X87487Y-28504D01*
X87450Y-28515D01*
X87284Y-28649D01*
X87182Y-28837D01*
X87176Y-28865D01*
X87225Y-28950D01*
X87802Y-28950D01*
X87802Y-28942D01*
X87902Y-28942D01*
X87902Y-28950D01*
X88479Y-28950D01*
X88528Y-28865D01*
X88522Y-28837D01*
X88420Y-28649D01*
X88254Y-28515D01*
X88217Y-28504D01*
X88222Y-28503D01*
X88398Y-28385D01*
X88517Y-28208D01*
X88558Y-28000D01*
X88558Y-29200D01*
X88502Y-29200D01*
X88522Y-29162D01*
X88528Y-29134D01*
X88479Y-29050D01*
X87902Y-29050D01*
X87902Y-29057D01*
X87802Y-29057D01*
X87802Y-29050D01*
X87225Y-29050D01*
X87176Y-29134D01*
X87182Y-29162D01*
X87202Y-29200D01*
X87050Y-29200D01*
X87050Y-20800D01*
X87186Y-20800D01*
X87146Y-21000D01*
X87187Y-21208D01*
X87306Y-21385D01*
X87482Y-21503D01*
X87487Y-21504D01*
X87450Y-21515D01*
X87284Y-21649D01*
X87182Y-21837D01*
X87176Y-21865D01*
X87225Y-21950D01*
X87802Y-21950D01*
X87802Y-21942D01*
X87902Y-21942D01*
X87902Y-21950D01*
X88479Y-21950D01*
X88528Y-21865D01*
X88522Y-21837D01*
X88420Y-21649D01*
X88254Y-21515D01*
X88217Y-21504D01*
X88222Y-21503D01*
X88398Y-21385D01*
X88517Y-21208D01*
X88558Y-21000D01*
X88518Y-20800D01*
X89733Y-20800D01*
X89705Y-20941D01*
X89705Y-21200D01*
X89541Y-21232D01*
X89364Y-21351D01*
X89246Y-21527D01*
X89205Y-21736D01*
X89205Y-22058D01*
X89246Y-22267D01*
X89364Y-22443D01*
X89381Y-22454D01*
X88905Y-22454D01*
X88813Y-22492D01*
X88743Y-22563D01*
X88705Y-22655D01*
X88704Y-22754D01*
X88704Y-23344D01*
X88742Y-23436D01*
X88813Y-23506D01*
X88905Y-23544D01*
X88952Y-23544D01*
X88864Y-23603D01*
X88746Y-23780D01*
X88705Y-23989D01*
X88705Y-24010D01*
X88746Y-24219D01*
X88864Y-24396D01*
X89041Y-24514D01*
X89250Y-24555D01*
X89458Y-24514D01*
X89635Y-24396D01*
X89750Y-24224D01*
X89864Y-24396D01*
X90041Y-24514D01*
X90250Y-24555D01*
X90458Y-24514D01*
X90635Y-24396D01*
X90750Y-24224D01*
X90864Y-24396D01*
X91041Y-24514D01*
X91250Y-24555D01*
X91458Y-24514D01*
X91635Y-24396D01*
X91753Y-24219D01*
X91795Y-24010D01*
X91795Y-23989D01*
X91753Y-23780D01*
X91635Y-23603D01*
X91547Y-23545D01*
X91594Y-23545D01*
X91686Y-23507D01*
X91756Y-23436D01*
X91794Y-23344D01*
X91795Y-23245D01*
X91795Y-23112D01*
X91732Y-23050D01*
X91025Y-23050D01*
X91025Y-23057D01*
X90925Y-23057D01*
X90925Y-23050D01*
X90917Y-23050D01*
X90917Y-22950D01*
X90925Y-22950D01*
X90925Y-22942D01*
X91025Y-22942D01*
X91025Y-22950D01*
X91732Y-22950D01*
X91795Y-22887D01*
X91795Y-22754D01*
X91794Y-22655D01*
X91756Y-22563D01*
X91686Y-22492D01*
X91594Y-22454D01*
X91118Y-22454D01*
X91135Y-22443D01*
X91253Y-22267D01*
X91295Y-22058D01*
X91295Y-21736D01*
X91253Y-21527D01*
X91135Y-21351D01*
X90958Y-21232D01*
X90795Y-21200D01*
X90795Y-20941D01*
X90766Y-20800D01*
X92955Y-20800D01*
X92754Y-21000D01*
X92620Y-21324D01*
X92619Y-21674D01*
X92753Y-21997D01*
X93000Y-22245D01*
X93324Y-22379D01*
X93674Y-22380D01*
X93997Y-22246D01*
X94200Y-22044D01*
X94200Y-27955D01*
X94200Y-27955D01*
G37*
G54D19*
X94200Y-27955D02*
X94054Y-27810D01*
X94054Y-26581D01*
X94050Y-26488D01*
X94050Y-25391D01*
X93966Y-25188D01*
X93811Y-25034D01*
X93730Y-25000D01*
X93811Y-24966D01*
X93965Y-24811D01*
X94049Y-24609D01*
X94050Y-24391D01*
X93966Y-24188D01*
X93827Y-24050D01*
X93849Y-24050D01*
X93941Y-24012D01*
X94011Y-23941D01*
X94049Y-23849D01*
X94050Y-23750D01*
X94050Y-23150D01*
X94012Y-23058D01*
X93941Y-22988D01*
X93849Y-22950D01*
X93750Y-22949D01*
X93150Y-22949D01*
X93058Y-22987D01*
X92988Y-23058D01*
X92950Y-23150D01*
X92949Y-23249D01*
X92949Y-23849D01*
X92987Y-23941D01*
X93058Y-24011D01*
X93150Y-24049D01*
X93172Y-24049D01*
X93034Y-24188D01*
X92950Y-24390D01*
X92949Y-24608D01*
X93033Y-24811D01*
X93188Y-24965D01*
X93269Y-24999D01*
X93188Y-25033D01*
X93034Y-25188D01*
X92950Y-25390D01*
X92949Y-25608D01*
X93033Y-25811D01*
X93188Y-25965D01*
X93263Y-25997D01*
X93212Y-26018D01*
X93184Y-26114D01*
X93500Y-26429D01*
X93815Y-26114D01*
X93787Y-26018D01*
X93732Y-25999D01*
X93811Y-25966D01*
X93965Y-25811D01*
X94049Y-25609D01*
X94050Y-25391D01*
X94050Y-26488D01*
X94043Y-26363D01*
X93981Y-26212D01*
X93885Y-26184D01*
X93570Y-26500D01*
X93885Y-26815D01*
X93981Y-26787D01*
X94054Y-26581D01*
X94054Y-27810D01*
X93999Y-27754D01*
X93815Y-27678D01*
X93815Y-26885D01*
X93500Y-26570D01*
X93429Y-26641D01*
X93429Y-26500D01*
X93114Y-26184D01*
X93018Y-26212D01*
X92945Y-26418D01*
X92956Y-26636D01*
X93018Y-26787D01*
X93114Y-26815D01*
X93429Y-26500D01*
X93429Y-26641D01*
X93184Y-26885D01*
X93212Y-26981D01*
X93418Y-27054D01*
X93636Y-27043D01*
X93787Y-26981D01*
X93815Y-26885D01*
X93815Y-27678D01*
X93675Y-27620D01*
X93325Y-27619D01*
X93002Y-27753D01*
X92754Y-28000D01*
X92620Y-28324D01*
X92619Y-28674D01*
X92753Y-28997D01*
X92955Y-29200D01*
X91795Y-29200D01*
X91795Y-28010D01*
X91795Y-27989D01*
X91753Y-27780D01*
X91635Y-27603D01*
X91458Y-27485D01*
X91250Y-27444D01*
X91041Y-27485D01*
X90864Y-27603D01*
X90750Y-27775D01*
X90635Y-27603D01*
X90458Y-27485D01*
X90250Y-27444D01*
X90041Y-27485D01*
X89864Y-27603D01*
X89750Y-27775D01*
X89635Y-27603D01*
X89458Y-27485D01*
X89250Y-27444D01*
X89041Y-27485D01*
X88864Y-27603D01*
X88746Y-27780D01*
X88705Y-27989D01*
X88705Y-28010D01*
X88746Y-28219D01*
X88864Y-28396D01*
X89041Y-28514D01*
X89250Y-28555D01*
X89458Y-28514D01*
X89635Y-28396D01*
X89750Y-28224D01*
X89864Y-28396D01*
X90041Y-28514D01*
X90250Y-28555D01*
X90458Y-28514D01*
X90635Y-28396D01*
X90750Y-28224D01*
X90864Y-28396D01*
X91041Y-28514D01*
X91250Y-28555D01*
X91458Y-28514D01*
X91635Y-28396D01*
X91753Y-28219D01*
X91795Y-28010D01*
X91795Y-29200D01*
X88558Y-29200D01*
X88558Y-28000D01*
X88517Y-27791D01*
X88398Y-27614D01*
X88227Y-27500D01*
X88398Y-27385D01*
X88517Y-27208D01*
X88558Y-27000D01*
X88517Y-26791D01*
X88398Y-26614D01*
X88227Y-26500D01*
X88398Y-26385D01*
X88517Y-26208D01*
X88558Y-26000D01*
X88558Y-23000D01*
X88517Y-22791D01*
X88398Y-22614D01*
X88222Y-22496D01*
X88217Y-22495D01*
X88254Y-22484D01*
X88420Y-22350D01*
X88522Y-22162D01*
X88528Y-22134D01*
X88479Y-22050D01*
X87902Y-22050D01*
X87902Y-22057D01*
X87802Y-22057D01*
X87802Y-22050D01*
X87225Y-22050D01*
X87176Y-22134D01*
X87182Y-22162D01*
X87284Y-22350D01*
X87450Y-22484D01*
X87487Y-22495D01*
X87482Y-22496D01*
X87306Y-22614D01*
X87187Y-22791D01*
X87146Y-23000D01*
X87187Y-23208D01*
X87306Y-23385D01*
X87410Y-23454D01*
X87360Y-23454D01*
X87268Y-23492D01*
X87198Y-23563D01*
X87160Y-23655D01*
X87159Y-23754D01*
X87159Y-24344D01*
X87197Y-24436D01*
X87268Y-24506D01*
X87360Y-24544D01*
X87459Y-24545D01*
X88344Y-24545D01*
X88436Y-24507D01*
X88506Y-24436D01*
X88544Y-24344D01*
X88545Y-24245D01*
X88545Y-23655D01*
X88507Y-23563D01*
X88436Y-23493D01*
X88344Y-23455D01*
X88294Y-23454D01*
X88398Y-23385D01*
X88517Y-23208D01*
X88558Y-23000D01*
X88558Y-26000D01*
X88517Y-25791D01*
X88398Y-25614D01*
X88222Y-25496D01*
X88013Y-25455D01*
X87691Y-25455D01*
X87482Y-25496D01*
X87306Y-25614D01*
X87187Y-25791D01*
X87146Y-26000D01*
X87187Y-26208D01*
X87306Y-26385D01*
X87477Y-26500D01*
X87306Y-26614D01*
X87187Y-26791D01*
X87146Y-27000D01*
X87187Y-27208D01*
X87306Y-27385D01*
X87477Y-27500D01*
X87306Y-27614D01*
X87187Y-27791D01*
X87146Y-28000D01*
X87187Y-28208D01*
X87306Y-28385D01*
X87482Y-28503D01*
X87487Y-28504D01*
X87450Y-28515D01*
X87284Y-28649D01*
X87182Y-28837D01*
X87176Y-28865D01*
X87225Y-28950D01*
X87802Y-28950D01*
X87802Y-28942D01*
X87902Y-28942D01*
X87902Y-28950D01*
X88479Y-28950D01*
X88528Y-28865D01*
X88522Y-28837D01*
X88420Y-28649D01*
X88254Y-28515D01*
X88217Y-28504D01*
X88222Y-28503D01*
X88398Y-28385D01*
X88517Y-28208D01*
X88558Y-28000D01*
X88558Y-29200D01*
X88502Y-29200D01*
X88522Y-29162D01*
X88528Y-29134D01*
X88479Y-29050D01*
X87902Y-29050D01*
X87902Y-29057D01*
X87802Y-29057D01*
X87802Y-29050D01*
X87225Y-29050D01*
X87176Y-29134D01*
X87182Y-29162D01*
X87202Y-29200D01*
X87050Y-29200D01*
X87050Y-20800D01*
X87186Y-20800D01*
X87146Y-21000D01*
X87187Y-21208D01*
X87306Y-21385D01*
X87482Y-21503D01*
X87487Y-21504D01*
X87450Y-21515D01*
X87284Y-21649D01*
X87182Y-21837D01*
X87176Y-21865D01*
X87225Y-21950D01*
X87802Y-21950D01*
X87802Y-21942D01*
X87902Y-21942D01*
X87902Y-21950D01*
X88479Y-21950D01*
X88528Y-21865D01*
X88522Y-21837D01*
X88420Y-21649D01*
X88254Y-21515D01*
X88217Y-21504D01*
X88222Y-21503D01*
X88398Y-21385D01*
X88517Y-21208D01*
X88558Y-21000D01*
X88518Y-20800D01*
X89733Y-20800D01*
X89705Y-20941D01*
X89705Y-21200D01*
X89541Y-21232D01*
X89364Y-21351D01*
X89246Y-21527D01*
X89205Y-21736D01*
X89205Y-22058D01*
X89246Y-22267D01*
X89364Y-22443D01*
X89381Y-22454D01*
X88905Y-22454D01*
X88813Y-22492D01*
X88743Y-22563D01*
X88705Y-22655D01*
X88704Y-22754D01*
X88704Y-23344D01*
X88742Y-23436D01*
X88813Y-23506D01*
X88905Y-23544D01*
X88952Y-23544D01*
X88864Y-23603D01*
X88746Y-23780D01*
X88705Y-23989D01*
X88705Y-24010D01*
X88746Y-24219D01*
X88864Y-24396D01*
X89041Y-24514D01*
X89250Y-24555D01*
X89458Y-24514D01*
X89635Y-24396D01*
X89750Y-24224D01*
X89864Y-24396D01*
X90041Y-24514D01*
X90250Y-24555D01*
X90458Y-24514D01*
X90635Y-24396D01*
X90750Y-24224D01*
X90864Y-24396D01*
X91041Y-24514D01*
X91250Y-24555D01*
X91458Y-24514D01*
X91635Y-24396D01*
X91753Y-24219D01*
X91795Y-24010D01*
X91795Y-23989D01*
X91753Y-23780D01*
X91635Y-23603D01*
X91547Y-23545D01*
X91594Y-23545D01*
X91686Y-23507D01*
X91756Y-23436D01*
X91794Y-23344D01*
X91795Y-23245D01*
X91795Y-23112D01*
X91732Y-23050D01*
X91025Y-23050D01*
X91025Y-23057D01*
X90925Y-23057D01*
X90925Y-23050D01*
X90917Y-23050D01*
X90917Y-22950D01*
X90925Y-22950D01*
X90925Y-22942D01*
X91025Y-22942D01*
X91025Y-22950D01*
X91732Y-22950D01*
X91795Y-22887D01*
X91795Y-22754D01*
X91794Y-22655D01*
X91756Y-22563D01*
X91686Y-22492D01*
X91594Y-22454D01*
X91118Y-22454D01*
X91135Y-22443D01*
X91253Y-22267D01*
X91295Y-22058D01*
X91295Y-21736D01*
X91253Y-21527D01*
X91135Y-21351D01*
X90958Y-21232D01*
X90795Y-21200D01*
X90795Y-20941D01*
X90766Y-20800D01*
X92955Y-20800D01*
X92754Y-21000D01*
X92620Y-21324D01*
X92619Y-21674D01*
X92753Y-21997D01*
X93000Y-22245D01*
X93324Y-22379D01*
X93674Y-22380D01*
X93997Y-22246D01*
X94200Y-22044D01*
X94200Y-27955D01*
M02*
