G04 (created by PCBNEW (2013-07-07 BZR 4022)-stable) date 5/5/2015 11:01:01 PM*
%MOIN*%
G04 Gerber Fmt 3.4, Leading zero omitted, Abs format*
%FSLAX34Y34*%
G01*
G70*
G90*
G04 APERTURE LIST*
%ADD10C,0.00590551*%
%ADD11C,0.005*%
%ADD12C,0.006*%
%ADD13C,0.0001*%
G04 APERTURE END LIST*
G54D10*
G54D11*
X92089Y-26589D02*
X92065Y-26601D01*
X92017Y-26601D01*
X91994Y-26589D01*
X91982Y-26565D01*
X91982Y-26553D01*
X91994Y-26529D01*
X92017Y-26517D01*
X92053Y-26517D01*
X92077Y-26505D01*
X92089Y-26482D01*
X92089Y-26470D01*
X92077Y-26446D01*
X92053Y-26434D01*
X92017Y-26434D01*
X91994Y-26446D01*
X91767Y-26434D02*
X91767Y-26601D01*
X91875Y-26434D02*
X91875Y-26565D01*
X91863Y-26589D01*
X91839Y-26601D01*
X91803Y-26601D01*
X91779Y-26589D01*
X91767Y-26577D01*
X91648Y-26434D02*
X91648Y-26684D01*
X91648Y-26446D02*
X91625Y-26434D01*
X91577Y-26434D01*
X91553Y-26446D01*
X91541Y-26458D01*
X91529Y-26482D01*
X91529Y-26553D01*
X91541Y-26577D01*
X91553Y-26589D01*
X91577Y-26601D01*
X91625Y-26601D01*
X91648Y-26589D01*
X91422Y-26434D02*
X91422Y-26684D01*
X91422Y-26446D02*
X91398Y-26434D01*
X91351Y-26434D01*
X91327Y-26446D01*
X91315Y-26458D01*
X91303Y-26482D01*
X91303Y-26553D01*
X91315Y-26577D01*
X91327Y-26589D01*
X91351Y-26601D01*
X91398Y-26601D01*
X91422Y-26589D01*
X91160Y-26601D02*
X91184Y-26589D01*
X91196Y-26577D01*
X91208Y-26553D01*
X91208Y-26482D01*
X91196Y-26458D01*
X91184Y-26446D01*
X91160Y-26434D01*
X91125Y-26434D01*
X91101Y-26446D01*
X91089Y-26458D01*
X91077Y-26482D01*
X91077Y-26553D01*
X91089Y-26577D01*
X91101Y-26589D01*
X91125Y-26601D01*
X91160Y-26601D01*
X90970Y-26601D02*
X90970Y-26434D01*
X90970Y-26482D02*
X90958Y-26458D01*
X90946Y-26446D01*
X90922Y-26434D01*
X90898Y-26434D01*
X90851Y-26434D02*
X90755Y-26434D01*
X90815Y-26351D02*
X90815Y-26565D01*
X90803Y-26589D01*
X90779Y-26601D01*
X90755Y-26601D01*
X90684Y-26589D02*
X90660Y-26601D01*
X90613Y-26601D01*
X90589Y-26589D01*
X90577Y-26565D01*
X90577Y-26553D01*
X90589Y-26529D01*
X90613Y-26517D01*
X90648Y-26517D01*
X90672Y-26505D01*
X90684Y-26482D01*
X90684Y-26470D01*
X90672Y-26446D01*
X90648Y-26434D01*
X90613Y-26434D01*
X90589Y-26446D01*
X90172Y-26601D02*
X90172Y-26470D01*
X90184Y-26446D01*
X90208Y-26434D01*
X90255Y-26434D01*
X90279Y-26446D01*
X90172Y-26589D02*
X90196Y-26601D01*
X90255Y-26601D01*
X90279Y-26589D01*
X90291Y-26565D01*
X90291Y-26541D01*
X90279Y-26517D01*
X90255Y-26505D01*
X90196Y-26505D01*
X90172Y-26494D01*
X90089Y-26434D02*
X89994Y-26434D01*
X90053Y-26351D02*
X90053Y-26565D01*
X90041Y-26589D01*
X90017Y-26601D01*
X89994Y-26601D01*
X89684Y-26601D02*
X89708Y-26589D01*
X89720Y-26565D01*
X89720Y-26351D01*
X89494Y-26589D02*
X89517Y-26601D01*
X89565Y-26601D01*
X89589Y-26589D01*
X89601Y-26565D01*
X89601Y-26470D01*
X89589Y-26446D01*
X89565Y-26434D01*
X89517Y-26434D01*
X89494Y-26446D01*
X89482Y-26470D01*
X89482Y-26494D01*
X89601Y-26517D01*
X89267Y-26601D02*
X89267Y-26470D01*
X89279Y-26446D01*
X89303Y-26434D01*
X89351Y-26434D01*
X89374Y-26446D01*
X89267Y-26589D02*
X89291Y-26601D01*
X89351Y-26601D01*
X89374Y-26589D01*
X89386Y-26565D01*
X89386Y-26541D01*
X89374Y-26517D01*
X89351Y-26505D01*
X89291Y-26505D01*
X89267Y-26494D01*
X89160Y-26589D02*
X89136Y-26601D01*
X89089Y-26601D01*
X89065Y-26589D01*
X89053Y-26565D01*
X89053Y-26553D01*
X89065Y-26529D01*
X89089Y-26517D01*
X89124Y-26517D01*
X89148Y-26505D01*
X89160Y-26482D01*
X89160Y-26470D01*
X89148Y-26446D01*
X89124Y-26434D01*
X89089Y-26434D01*
X89065Y-26446D01*
X88982Y-26434D02*
X88886Y-26434D01*
X88946Y-26351D02*
X88946Y-26565D01*
X88934Y-26589D01*
X88910Y-26601D01*
X88886Y-26601D01*
X91571Y-27001D02*
X91714Y-27001D01*
X91642Y-27001D02*
X91642Y-26751D01*
X91666Y-26786D01*
X91690Y-26810D01*
X91714Y-26822D01*
X91333Y-27001D02*
X91476Y-27001D01*
X91404Y-27001D02*
X91404Y-26751D01*
X91428Y-26786D01*
X91452Y-26810D01*
X91476Y-26822D01*
X91107Y-26751D02*
X91226Y-26751D01*
X91238Y-26870D01*
X91226Y-26858D01*
X91202Y-26846D01*
X91142Y-26846D01*
X91119Y-26858D01*
X91107Y-26870D01*
X91095Y-26894D01*
X91095Y-26953D01*
X91107Y-26977D01*
X91119Y-26989D01*
X91142Y-27001D01*
X91202Y-27001D01*
X91226Y-26989D01*
X91238Y-26977D01*
X91000Y-26775D02*
X90988Y-26763D01*
X90964Y-26751D01*
X90904Y-26751D01*
X90880Y-26763D01*
X90869Y-26775D01*
X90857Y-26798D01*
X90857Y-26822D01*
X90869Y-26858D01*
X91011Y-27001D01*
X90857Y-27001D01*
X90702Y-26751D02*
X90678Y-26751D01*
X90654Y-26763D01*
X90642Y-26775D01*
X90630Y-26798D01*
X90619Y-26846D01*
X90619Y-26905D01*
X90630Y-26953D01*
X90642Y-26977D01*
X90654Y-26989D01*
X90678Y-27001D01*
X90702Y-27001D01*
X90726Y-26989D01*
X90738Y-26977D01*
X90750Y-26953D01*
X90761Y-26905D01*
X90761Y-26846D01*
X90750Y-26798D01*
X90738Y-26775D01*
X90726Y-26763D01*
X90702Y-26751D01*
X90464Y-26751D02*
X90440Y-26751D01*
X90416Y-26763D01*
X90404Y-26775D01*
X90392Y-26798D01*
X90380Y-26846D01*
X90380Y-26905D01*
X90392Y-26953D01*
X90404Y-26977D01*
X90416Y-26989D01*
X90440Y-27001D01*
X90464Y-27001D01*
X90488Y-26989D01*
X90500Y-26977D01*
X90511Y-26953D01*
X90523Y-26905D01*
X90523Y-26846D01*
X90511Y-26798D01*
X90500Y-26775D01*
X90488Y-26763D01*
X90464Y-26751D01*
X90083Y-27001D02*
X90083Y-26751D01*
X90083Y-26846D02*
X90059Y-26834D01*
X90011Y-26834D01*
X89988Y-26846D01*
X89976Y-26858D01*
X89964Y-26882D01*
X89964Y-26953D01*
X89976Y-26977D01*
X89988Y-26989D01*
X90011Y-27001D01*
X90059Y-27001D01*
X90083Y-26989D01*
X89750Y-27001D02*
X89750Y-26870D01*
X89761Y-26846D01*
X89785Y-26834D01*
X89833Y-26834D01*
X89857Y-26846D01*
X89750Y-26989D02*
X89773Y-27001D01*
X89833Y-27001D01*
X89857Y-26989D01*
X89869Y-26965D01*
X89869Y-26941D01*
X89857Y-26917D01*
X89833Y-26905D01*
X89773Y-26905D01*
X89750Y-26894D01*
X89523Y-26834D02*
X89523Y-27001D01*
X89630Y-26834D02*
X89630Y-26965D01*
X89619Y-26989D01*
X89595Y-27001D01*
X89559Y-27001D01*
X89535Y-26989D01*
X89523Y-26977D01*
X89297Y-27001D02*
X89297Y-26751D01*
X89297Y-26989D02*
X89321Y-27001D01*
X89369Y-27001D01*
X89392Y-26989D01*
X89404Y-26977D01*
X89416Y-26953D01*
X89416Y-26882D01*
X89404Y-26858D01*
X89392Y-26846D01*
X89369Y-26834D01*
X89321Y-26834D01*
X89297Y-26846D01*
G54D12*
X80571Y-21385D02*
X80571Y-21328D01*
X80585Y-21300D01*
X80600Y-21285D01*
X80642Y-21257D01*
X80700Y-21242D01*
X80814Y-21242D01*
X80842Y-21257D01*
X80857Y-21271D01*
X80871Y-21300D01*
X80871Y-21357D01*
X80857Y-21385D01*
X80842Y-21400D01*
X80814Y-21414D01*
X80742Y-21414D01*
X80714Y-21400D01*
X80700Y-21385D01*
X80685Y-21357D01*
X80685Y-21300D01*
X80700Y-21271D01*
X80714Y-21257D01*
X80742Y-21242D01*
X80871Y-21542D02*
X80571Y-21542D01*
X80871Y-21714D01*
X80571Y-21714D01*
X80871Y-22014D02*
X80871Y-21842D01*
X80871Y-21928D02*
X80571Y-21928D01*
X80614Y-21900D01*
X80642Y-21871D01*
X80657Y-21842D01*
X80571Y-22114D02*
X80571Y-22300D01*
X80685Y-22200D01*
X80685Y-22242D01*
X80700Y-22271D01*
X80714Y-22285D01*
X80742Y-22300D01*
X80814Y-22300D01*
X80842Y-22285D01*
X80857Y-22271D01*
X80871Y-22242D01*
X80871Y-22157D01*
X80857Y-22128D01*
X80842Y-22114D01*
X80571Y-22400D02*
X80571Y-22600D01*
X80871Y-22471D01*
X80571Y-22899D02*
X80571Y-23071D01*
X80871Y-22985D02*
X80571Y-22985D01*
X80571Y-23128D02*
X80571Y-23299D01*
X80871Y-23214D02*
X80571Y-23214D01*
X80871Y-23542D02*
X80871Y-23399D01*
X80571Y-23399D01*
X80857Y-23857D02*
X80871Y-23899D01*
X80871Y-23971D01*
X80857Y-23999D01*
X80842Y-24014D01*
X80814Y-24028D01*
X80785Y-24028D01*
X80757Y-24014D01*
X80742Y-23999D01*
X80728Y-23971D01*
X80714Y-23914D01*
X80700Y-23885D01*
X80685Y-23871D01*
X80657Y-23857D01*
X80628Y-23857D01*
X80600Y-23871D01*
X80585Y-23885D01*
X80571Y-23914D01*
X80571Y-23985D01*
X80585Y-24028D01*
X80857Y-24271D02*
X80871Y-24242D01*
X80871Y-24185D01*
X80857Y-24157D01*
X80828Y-24142D01*
X80714Y-24142D01*
X80685Y-24157D01*
X80671Y-24185D01*
X80671Y-24242D01*
X80685Y-24271D01*
X80714Y-24285D01*
X80742Y-24285D01*
X80771Y-24142D01*
X80871Y-24414D02*
X80671Y-24414D01*
X80728Y-24414D02*
X80700Y-24428D01*
X80685Y-24442D01*
X80671Y-24471D01*
X80671Y-24499D01*
X80871Y-24599D02*
X80671Y-24599D01*
X80571Y-24599D02*
X80585Y-24585D01*
X80600Y-24599D01*
X80585Y-24614D01*
X80571Y-24599D01*
X80600Y-24599D01*
X80871Y-24871D02*
X80714Y-24871D01*
X80685Y-24857D01*
X80671Y-24828D01*
X80671Y-24771D01*
X80685Y-24742D01*
X80857Y-24871D02*
X80871Y-24842D01*
X80871Y-24771D01*
X80857Y-24742D01*
X80828Y-24728D01*
X80800Y-24728D01*
X80771Y-24742D01*
X80757Y-24771D01*
X80757Y-24842D01*
X80742Y-24871D01*
X80871Y-25057D02*
X80857Y-25028D01*
X80828Y-25014D01*
X80571Y-25014D01*
X80571Y-25457D02*
X80571Y-25514D01*
X80585Y-25542D01*
X80614Y-25571D01*
X80671Y-25585D01*
X80771Y-25585D01*
X80828Y-25571D01*
X80857Y-25542D01*
X80871Y-25514D01*
X80871Y-25457D01*
X80857Y-25428D01*
X80828Y-25399D01*
X80771Y-25385D01*
X80671Y-25385D01*
X80614Y-25399D01*
X80585Y-25428D01*
X80571Y-25457D01*
X80671Y-25714D02*
X80971Y-25714D01*
X80685Y-25714D02*
X80671Y-25742D01*
X80671Y-25799D01*
X80685Y-25828D01*
X80700Y-25842D01*
X80728Y-25857D01*
X80814Y-25857D01*
X80842Y-25842D01*
X80857Y-25828D01*
X80871Y-25799D01*
X80871Y-25742D01*
X80857Y-25714D01*
X80671Y-25942D02*
X80671Y-26057D01*
X80571Y-25985D02*
X80828Y-25985D01*
X80857Y-25999D01*
X80871Y-26028D01*
X80871Y-26057D01*
X80871Y-26199D02*
X80857Y-26171D01*
X80842Y-26157D01*
X80814Y-26142D01*
X80728Y-26142D01*
X80700Y-26157D01*
X80685Y-26171D01*
X80671Y-26199D01*
X80671Y-26242D01*
X80685Y-26271D01*
X80700Y-26285D01*
X80728Y-26299D01*
X80814Y-26299D01*
X80842Y-26285D01*
X80857Y-26271D01*
X80871Y-26242D01*
X80871Y-26199D01*
X80871Y-26428D02*
X80671Y-26428D01*
X80571Y-26428D02*
X80585Y-26414D01*
X80600Y-26428D01*
X80585Y-26442D01*
X80571Y-26428D01*
X80600Y-26428D01*
X80857Y-26557D02*
X80871Y-26585D01*
X80871Y-26642D01*
X80857Y-26671D01*
X80828Y-26685D01*
X80814Y-26685D01*
X80785Y-26671D01*
X80771Y-26642D01*
X80771Y-26599D01*
X80757Y-26571D01*
X80728Y-26557D01*
X80714Y-26557D01*
X80685Y-26571D01*
X80671Y-26599D01*
X80671Y-26642D01*
X80685Y-26671D01*
X80871Y-26857D02*
X80857Y-26828D01*
X80842Y-26814D01*
X80814Y-26799D01*
X80728Y-26799D01*
X80700Y-26814D01*
X80685Y-26828D01*
X80671Y-26857D01*
X80671Y-26899D01*
X80685Y-26928D01*
X80700Y-26942D01*
X80728Y-26957D01*
X80814Y-26957D01*
X80842Y-26942D01*
X80857Y-26928D01*
X80871Y-26899D01*
X80871Y-26857D01*
X80871Y-27128D02*
X80857Y-27099D01*
X80828Y-27085D01*
X80571Y-27085D01*
X80871Y-27371D02*
X80714Y-27371D01*
X80685Y-27357D01*
X80671Y-27328D01*
X80671Y-27271D01*
X80685Y-27242D01*
X80857Y-27371D02*
X80871Y-27342D01*
X80871Y-27271D01*
X80857Y-27242D01*
X80828Y-27228D01*
X80800Y-27228D01*
X80771Y-27242D01*
X80757Y-27271D01*
X80757Y-27342D01*
X80742Y-27371D01*
X80671Y-27471D02*
X80671Y-27585D01*
X80571Y-27514D02*
X80828Y-27514D01*
X80857Y-27528D01*
X80871Y-27557D01*
X80871Y-27585D01*
X80871Y-27728D02*
X80857Y-27700D01*
X80842Y-27685D01*
X80814Y-27671D01*
X80728Y-27671D01*
X80700Y-27685D01*
X80685Y-27700D01*
X80671Y-27728D01*
X80671Y-27771D01*
X80685Y-27800D01*
X80700Y-27814D01*
X80728Y-27828D01*
X80814Y-27828D01*
X80842Y-27814D01*
X80857Y-27800D01*
X80871Y-27771D01*
X80871Y-27728D01*
X80871Y-27957D02*
X80671Y-27957D01*
X80728Y-27957D02*
X80700Y-27971D01*
X80685Y-27985D01*
X80671Y-28014D01*
X80671Y-28042D01*
X80671Y-28342D02*
X80871Y-28414D01*
X80671Y-28485D01*
X80871Y-28757D02*
X80871Y-28585D01*
X80871Y-28671D02*
X80571Y-28671D01*
X80614Y-28642D01*
X80642Y-28614D01*
X80657Y-28585D01*
G54D11*
X91613Y-24934D02*
X91613Y-25136D01*
X91625Y-25160D01*
X91636Y-25172D01*
X91660Y-25184D01*
X91696Y-25184D01*
X91720Y-25172D01*
X91613Y-25089D02*
X91636Y-25101D01*
X91684Y-25101D01*
X91708Y-25089D01*
X91720Y-25077D01*
X91732Y-25053D01*
X91732Y-24982D01*
X91720Y-24958D01*
X91708Y-24946D01*
X91684Y-24934D01*
X91636Y-24934D01*
X91613Y-24946D01*
X91494Y-25101D02*
X91494Y-24934D01*
X91494Y-24851D02*
X91505Y-24863D01*
X91494Y-24875D01*
X91482Y-24863D01*
X91494Y-24851D01*
X91494Y-24875D01*
X91410Y-24934D02*
X91315Y-24934D01*
X91375Y-24851D02*
X91375Y-25065D01*
X91363Y-25089D01*
X91339Y-25101D01*
X91315Y-25101D01*
X91232Y-25101D02*
X91232Y-24851D01*
X91125Y-25101D02*
X91125Y-24970D01*
X91136Y-24946D01*
X91160Y-24934D01*
X91196Y-24934D01*
X91220Y-24946D01*
X91232Y-24958D01*
X90898Y-24934D02*
X90898Y-25101D01*
X91005Y-24934D02*
X91005Y-25065D01*
X90994Y-25089D01*
X90970Y-25101D01*
X90934Y-25101D01*
X90910Y-25089D01*
X90898Y-25077D01*
X90779Y-25101D02*
X90779Y-24851D01*
X90779Y-24946D02*
X90755Y-24934D01*
X90708Y-24934D01*
X90684Y-24946D01*
X90672Y-24958D01*
X90660Y-24982D01*
X90660Y-25053D01*
X90672Y-25077D01*
X90684Y-25089D01*
X90708Y-25101D01*
X90755Y-25101D01*
X90779Y-25089D01*
X90553Y-25077D02*
X90541Y-25089D01*
X90553Y-25101D01*
X90565Y-25089D01*
X90553Y-25077D01*
X90553Y-25101D01*
X90327Y-25089D02*
X90351Y-25101D01*
X90398Y-25101D01*
X90422Y-25089D01*
X90434Y-25077D01*
X90446Y-25053D01*
X90446Y-24982D01*
X90434Y-24958D01*
X90422Y-24946D01*
X90398Y-24934D01*
X90351Y-24934D01*
X90327Y-24946D01*
X90184Y-25101D02*
X90208Y-25089D01*
X90220Y-25077D01*
X90232Y-25053D01*
X90232Y-24982D01*
X90220Y-24958D01*
X90208Y-24946D01*
X90184Y-24934D01*
X90148Y-24934D01*
X90125Y-24946D01*
X90113Y-24958D01*
X90101Y-24982D01*
X90101Y-25053D01*
X90113Y-25077D01*
X90125Y-25089D01*
X90148Y-25101D01*
X90184Y-25101D01*
X89994Y-25101D02*
X89994Y-24934D01*
X89994Y-24958D02*
X89982Y-24946D01*
X89958Y-24934D01*
X89922Y-24934D01*
X89898Y-24946D01*
X89886Y-24970D01*
X89886Y-25101D01*
X89886Y-24970D02*
X89875Y-24946D01*
X89851Y-24934D01*
X89815Y-24934D01*
X89791Y-24946D01*
X89779Y-24970D01*
X89779Y-25101D01*
X89482Y-24839D02*
X89696Y-25160D01*
X89398Y-24934D02*
X89398Y-25184D01*
X89398Y-24946D02*
X89375Y-24934D01*
X89327Y-24934D01*
X89303Y-24946D01*
X89291Y-24958D01*
X89279Y-24982D01*
X89279Y-25053D01*
X89291Y-25077D01*
X89303Y-25089D01*
X89327Y-25101D01*
X89375Y-25101D01*
X89398Y-25089D01*
X89077Y-25089D02*
X89101Y-25101D01*
X89148Y-25101D01*
X89172Y-25089D01*
X89184Y-25065D01*
X89184Y-24970D01*
X89172Y-24946D01*
X89148Y-24934D01*
X89101Y-24934D01*
X89077Y-24946D01*
X89065Y-24970D01*
X89065Y-24994D01*
X89184Y-25017D01*
X88958Y-24934D02*
X88958Y-25184D01*
X88958Y-24946D02*
X88934Y-24934D01*
X88886Y-24934D01*
X88863Y-24946D01*
X88851Y-24958D01*
X88839Y-24982D01*
X88839Y-25053D01*
X88851Y-25077D01*
X88863Y-25089D01*
X88886Y-25101D01*
X88934Y-25101D01*
X88958Y-25089D01*
X88625Y-25101D02*
X88625Y-24970D01*
X88636Y-24946D01*
X88660Y-24934D01*
X88708Y-24934D01*
X88732Y-24946D01*
X88625Y-25089D02*
X88648Y-25101D01*
X88708Y-25101D01*
X88732Y-25089D01*
X88744Y-25065D01*
X88744Y-25041D01*
X88732Y-25017D01*
X88708Y-25005D01*
X88648Y-25005D01*
X88625Y-24994D01*
X88517Y-25089D02*
X88494Y-25101D01*
X88446Y-25101D01*
X88422Y-25089D01*
X88410Y-25065D01*
X88410Y-25053D01*
X88422Y-25029D01*
X88446Y-25017D01*
X88482Y-25017D01*
X88505Y-25005D01*
X88517Y-24982D01*
X88517Y-24970D01*
X88505Y-24946D01*
X88482Y-24934D01*
X88446Y-24934D01*
X88422Y-24946D01*
X88267Y-25101D02*
X88291Y-25089D01*
X88303Y-25065D01*
X88303Y-24851D01*
X88065Y-25101D02*
X88065Y-24970D01*
X88077Y-24946D01*
X88101Y-24934D01*
X88148Y-24934D01*
X88172Y-24946D01*
X88065Y-25089D02*
X88089Y-25101D01*
X88148Y-25101D01*
X88172Y-25089D01*
X88184Y-25065D01*
X88184Y-25041D01*
X88172Y-25017D01*
X88148Y-25005D01*
X88089Y-25005D01*
X88065Y-24994D01*
X87946Y-25101D02*
X87946Y-24851D01*
X87946Y-24946D02*
X87922Y-24934D01*
X87874Y-24934D01*
X87851Y-24946D01*
X87839Y-24958D01*
X87827Y-24982D01*
X87827Y-25053D01*
X87839Y-25077D01*
X87851Y-25089D01*
X87874Y-25101D01*
X87922Y-25101D01*
X87946Y-25089D01*
X87732Y-25089D02*
X87708Y-25101D01*
X87660Y-25101D01*
X87636Y-25089D01*
X87624Y-25065D01*
X87624Y-25053D01*
X87636Y-25029D01*
X87660Y-25017D01*
X87696Y-25017D01*
X87720Y-25005D01*
X87732Y-24982D01*
X87732Y-24970D01*
X87720Y-24946D01*
X87696Y-24934D01*
X87660Y-24934D01*
X87636Y-24946D01*
X87339Y-24839D02*
X87553Y-25160D01*
X87148Y-24851D02*
X87196Y-24851D01*
X87220Y-24863D01*
X87232Y-24875D01*
X87255Y-24910D01*
X87267Y-24958D01*
X87267Y-25053D01*
X87255Y-25077D01*
X87244Y-25089D01*
X87220Y-25101D01*
X87172Y-25101D01*
X87148Y-25089D01*
X87136Y-25077D01*
X87124Y-25053D01*
X87124Y-24994D01*
X87136Y-24970D01*
X87148Y-24958D01*
X87172Y-24946D01*
X87220Y-24946D01*
X87244Y-24958D01*
X87255Y-24970D01*
X87267Y-24994D01*
X87017Y-25101D02*
X87017Y-24851D01*
X86874Y-25101D01*
X86874Y-24851D01*
X86624Y-25101D02*
X86767Y-25101D01*
X86696Y-25101D02*
X86696Y-24851D01*
X86720Y-24886D01*
X86744Y-24910D01*
X86767Y-24922D01*
X86541Y-24851D02*
X86386Y-24851D01*
X86470Y-24946D01*
X86434Y-24946D01*
X86410Y-24958D01*
X86398Y-24970D01*
X86386Y-24994D01*
X86386Y-25053D01*
X86398Y-25077D01*
X86410Y-25089D01*
X86434Y-25101D01*
X86505Y-25101D01*
X86529Y-25089D01*
X86541Y-25077D01*
X86303Y-24851D02*
X86136Y-24851D01*
X86244Y-25101D01*
X86041Y-25005D02*
X85851Y-25005D01*
X85767Y-24851D02*
X85624Y-24851D01*
X85696Y-25101D02*
X85696Y-24851D01*
X85577Y-24851D02*
X85434Y-24851D01*
X85505Y-25101D02*
X85505Y-24851D01*
X85232Y-25101D02*
X85351Y-25101D01*
X85351Y-24851D01*
X85148Y-25005D02*
X84958Y-25005D01*
X84851Y-25089D02*
X84815Y-25101D01*
X84755Y-25101D01*
X84732Y-25089D01*
X84720Y-25077D01*
X84708Y-25053D01*
X84708Y-25029D01*
X84720Y-25005D01*
X84732Y-24994D01*
X84755Y-24982D01*
X84803Y-24970D01*
X84827Y-24958D01*
X84839Y-24946D01*
X84851Y-24922D01*
X84851Y-24898D01*
X84839Y-24875D01*
X84827Y-24863D01*
X84803Y-24851D01*
X84744Y-24851D01*
X84708Y-24863D01*
X84505Y-25089D02*
X84529Y-25101D01*
X84577Y-25101D01*
X84601Y-25089D01*
X84613Y-25065D01*
X84613Y-24970D01*
X84601Y-24946D01*
X84577Y-24934D01*
X84529Y-24934D01*
X84505Y-24946D01*
X84494Y-24970D01*
X84494Y-24994D01*
X84613Y-25017D01*
X84386Y-25101D02*
X84386Y-24934D01*
X84386Y-24982D02*
X84374Y-24958D01*
X84363Y-24946D01*
X84339Y-24934D01*
X84315Y-24934D01*
X84232Y-25101D02*
X84232Y-24934D01*
X84232Y-24851D02*
X84244Y-24863D01*
X84232Y-24875D01*
X84220Y-24863D01*
X84232Y-24851D01*
X84232Y-24875D01*
X84005Y-25101D02*
X84005Y-24970D01*
X84017Y-24946D01*
X84041Y-24934D01*
X84089Y-24934D01*
X84113Y-24946D01*
X84005Y-25089D02*
X84029Y-25101D01*
X84089Y-25101D01*
X84113Y-25089D01*
X84124Y-25065D01*
X84124Y-25041D01*
X84113Y-25017D01*
X84089Y-25005D01*
X84029Y-25005D01*
X84005Y-24994D01*
X83851Y-25101D02*
X83874Y-25089D01*
X83886Y-25065D01*
X83886Y-24851D01*
X83755Y-25005D02*
X83565Y-25005D01*
X83398Y-24851D02*
X83351Y-24851D01*
X83327Y-24863D01*
X83303Y-24886D01*
X83291Y-24934D01*
X83291Y-25017D01*
X83303Y-25065D01*
X83327Y-25089D01*
X83351Y-25101D01*
X83398Y-25101D01*
X83422Y-25089D01*
X83446Y-25065D01*
X83458Y-25017D01*
X83458Y-24934D01*
X83446Y-24886D01*
X83422Y-24863D01*
X83398Y-24851D01*
X83184Y-24934D02*
X83184Y-25184D01*
X83184Y-24946D02*
X83160Y-24934D01*
X83113Y-24934D01*
X83089Y-24946D01*
X83077Y-24958D01*
X83065Y-24982D01*
X83065Y-25053D01*
X83077Y-25077D01*
X83089Y-25089D01*
X83113Y-25101D01*
X83160Y-25101D01*
X83184Y-25089D01*
X82994Y-24934D02*
X82898Y-24934D01*
X82958Y-24851D02*
X82958Y-25065D01*
X82946Y-25089D01*
X82922Y-25101D01*
X82898Y-25101D01*
X82779Y-25101D02*
X82803Y-25089D01*
X82815Y-25077D01*
X82827Y-25053D01*
X82827Y-24982D01*
X82815Y-24958D01*
X82803Y-24946D01*
X82779Y-24934D01*
X82744Y-24934D01*
X82720Y-24946D01*
X82708Y-24958D01*
X82696Y-24982D01*
X82696Y-25053D01*
X82708Y-25077D01*
X82720Y-25089D01*
X82744Y-25101D01*
X82779Y-25101D01*
X82589Y-25101D02*
X82589Y-24934D01*
X82589Y-24851D02*
X82601Y-24863D01*
X82589Y-24875D01*
X82577Y-24863D01*
X82589Y-24851D01*
X82589Y-24875D01*
X82482Y-25089D02*
X82458Y-25101D01*
X82410Y-25101D01*
X82386Y-25089D01*
X82374Y-25065D01*
X82374Y-25053D01*
X82386Y-25029D01*
X82410Y-25017D01*
X82446Y-25017D01*
X82470Y-25005D01*
X82482Y-24982D01*
X82482Y-24970D01*
X82470Y-24946D01*
X82446Y-24934D01*
X82410Y-24934D01*
X82386Y-24946D01*
X82232Y-25101D02*
X82255Y-25089D01*
X82267Y-25077D01*
X82279Y-25053D01*
X82279Y-24982D01*
X82267Y-24958D01*
X82255Y-24946D01*
X82232Y-24934D01*
X82196Y-24934D01*
X82172Y-24946D01*
X82160Y-24958D01*
X82148Y-24982D01*
X82148Y-25053D01*
X82160Y-25077D01*
X82172Y-25089D01*
X82196Y-25101D01*
X82232Y-25101D01*
X82005Y-25101D02*
X82029Y-25089D01*
X82041Y-25065D01*
X82041Y-24851D01*
X81803Y-25101D02*
X81803Y-24970D01*
X81815Y-24946D01*
X81839Y-24934D01*
X81886Y-24934D01*
X81910Y-24946D01*
X81803Y-25089D02*
X81827Y-25101D01*
X81886Y-25101D01*
X81910Y-25089D01*
X81922Y-25065D01*
X81922Y-25041D01*
X81910Y-25017D01*
X81886Y-25005D01*
X81827Y-25005D01*
X81803Y-24994D01*
X81720Y-24934D02*
X81624Y-24934D01*
X81684Y-24851D02*
X81684Y-25065D01*
X81672Y-25089D01*
X81648Y-25101D01*
X81624Y-25101D01*
X81505Y-25101D02*
X81529Y-25089D01*
X81541Y-25077D01*
X81553Y-25053D01*
X81553Y-24982D01*
X81541Y-24958D01*
X81529Y-24946D01*
X81505Y-24934D01*
X81470Y-24934D01*
X81446Y-24946D01*
X81434Y-24958D01*
X81422Y-24982D01*
X81422Y-25053D01*
X81434Y-25077D01*
X81446Y-25089D01*
X81470Y-25101D01*
X81505Y-25101D01*
X81315Y-25101D02*
X81315Y-24934D01*
X81315Y-24982D02*
X81303Y-24958D01*
X81291Y-24946D01*
X81267Y-24934D01*
X81244Y-24934D01*
G54D13*
G36*
X83227Y-24457D02*
X83219Y-24453D01*
X83200Y-24441D01*
X83174Y-24424D01*
X83143Y-24403D01*
X83112Y-24382D01*
X83086Y-24365D01*
X83068Y-24353D01*
X83061Y-24349D01*
X83057Y-24350D01*
X83042Y-24358D01*
X83020Y-24369D01*
X83008Y-24375D01*
X82988Y-24384D01*
X82978Y-24386D01*
X82977Y-24383D01*
X82969Y-24368D01*
X82958Y-24342D01*
X82943Y-24308D01*
X82926Y-24268D01*
X82908Y-24225D01*
X82890Y-24181D01*
X82872Y-24139D01*
X82857Y-24101D01*
X82844Y-24071D01*
X82836Y-24049D01*
X82833Y-24040D01*
X82834Y-24038D01*
X82844Y-24029D01*
X82861Y-24016D01*
X82899Y-23985D01*
X82935Y-23939D01*
X82958Y-23887D01*
X82965Y-23829D01*
X82959Y-23776D01*
X82938Y-23725D01*
X82902Y-23678D01*
X82858Y-23644D01*
X82807Y-23622D01*
X82750Y-23615D01*
X82695Y-23621D01*
X82643Y-23642D01*
X82596Y-23677D01*
X82577Y-23700D01*
X82550Y-23747D01*
X82534Y-23797D01*
X82533Y-23809D01*
X82535Y-23865D01*
X82551Y-23918D01*
X82580Y-23965D01*
X82621Y-24004D01*
X82626Y-24008D01*
X82645Y-24022D01*
X82657Y-24031D01*
X82667Y-24039D01*
X82597Y-24209D01*
X82586Y-24236D01*
X82566Y-24282D01*
X82549Y-24322D01*
X82536Y-24354D01*
X82526Y-24375D01*
X82522Y-24384D01*
X82522Y-24384D01*
X82516Y-24385D01*
X82503Y-24380D01*
X82479Y-24369D01*
X82463Y-24361D01*
X82445Y-24352D01*
X82437Y-24349D01*
X82430Y-24353D01*
X82413Y-24364D01*
X82388Y-24381D01*
X82358Y-24401D01*
X82329Y-24421D01*
X82302Y-24439D01*
X82283Y-24451D01*
X82273Y-24456D01*
X82272Y-24456D01*
X82264Y-24451D01*
X82248Y-24439D01*
X82225Y-24417D01*
X82193Y-24385D01*
X82188Y-24380D01*
X82161Y-24352D01*
X82139Y-24329D01*
X82124Y-24313D01*
X82119Y-24306D01*
X82119Y-24306D01*
X82124Y-24296D01*
X82136Y-24277D01*
X82154Y-24250D01*
X82175Y-24219D01*
X82231Y-24137D01*
X82200Y-24060D01*
X82191Y-24037D01*
X82179Y-24008D01*
X82170Y-23988D01*
X82165Y-23979D01*
X82157Y-23976D01*
X82136Y-23971D01*
X82105Y-23964D01*
X82069Y-23958D01*
X82034Y-23951D01*
X82003Y-23945D01*
X81980Y-23941D01*
X81970Y-23939D01*
X81968Y-23937D01*
X81966Y-23932D01*
X81964Y-23922D01*
X81964Y-23903D01*
X81963Y-23873D01*
X81963Y-23829D01*
X81963Y-23825D01*
X81964Y-23783D01*
X81964Y-23750D01*
X81965Y-23729D01*
X81967Y-23721D01*
X81967Y-23721D01*
X81977Y-23718D01*
X81999Y-23714D01*
X82030Y-23707D01*
X82068Y-23700D01*
X82070Y-23700D01*
X82107Y-23693D01*
X82138Y-23686D01*
X82160Y-23681D01*
X82169Y-23678D01*
X82171Y-23676D01*
X82179Y-23661D01*
X82190Y-23638D01*
X82202Y-23610D01*
X82214Y-23581D01*
X82225Y-23554D01*
X82232Y-23535D01*
X82234Y-23526D01*
X82234Y-23526D01*
X82228Y-23517D01*
X82215Y-23497D01*
X82197Y-23471D01*
X82175Y-23439D01*
X82174Y-23436D01*
X82152Y-23405D01*
X82135Y-23378D01*
X82123Y-23359D01*
X82119Y-23351D01*
X82119Y-23350D01*
X82126Y-23341D01*
X82142Y-23323D01*
X82165Y-23299D01*
X82193Y-23271D01*
X82202Y-23263D01*
X82232Y-23233D01*
X82253Y-23213D01*
X82267Y-23203D01*
X82273Y-23200D01*
X82273Y-23201D01*
X82283Y-23206D01*
X82303Y-23219D01*
X82330Y-23238D01*
X82362Y-23259D01*
X82364Y-23261D01*
X82395Y-23282D01*
X82421Y-23300D01*
X82440Y-23312D01*
X82448Y-23317D01*
X82450Y-23317D01*
X82462Y-23313D01*
X82485Y-23306D01*
X82512Y-23295D01*
X82541Y-23283D01*
X82568Y-23272D01*
X82588Y-23263D01*
X82597Y-23258D01*
X82597Y-23257D01*
X82601Y-23246D01*
X82606Y-23222D01*
X82613Y-23190D01*
X82620Y-23151D01*
X82621Y-23145D01*
X82628Y-23108D01*
X82634Y-23077D01*
X82639Y-23055D01*
X82641Y-23046D01*
X82646Y-23045D01*
X82665Y-23044D01*
X82693Y-23043D01*
X82727Y-23043D01*
X82762Y-23043D01*
X82796Y-23044D01*
X82826Y-23045D01*
X82847Y-23046D01*
X82856Y-23048D01*
X82857Y-23049D01*
X82860Y-23060D01*
X82865Y-23084D01*
X82872Y-23116D01*
X82879Y-23155D01*
X82880Y-23162D01*
X82887Y-23199D01*
X82894Y-23230D01*
X82898Y-23251D01*
X82901Y-23259D01*
X82904Y-23261D01*
X82919Y-23268D01*
X82944Y-23278D01*
X82976Y-23291D01*
X83048Y-23320D01*
X83136Y-23259D01*
X83144Y-23254D01*
X83176Y-23232D01*
X83202Y-23215D01*
X83220Y-23203D01*
X83228Y-23199D01*
X83228Y-23199D01*
X83237Y-23207D01*
X83255Y-23223D01*
X83279Y-23247D01*
X83306Y-23274D01*
X83327Y-23295D01*
X83351Y-23320D01*
X83367Y-23336D01*
X83375Y-23347D01*
X83378Y-23354D01*
X83377Y-23358D01*
X83372Y-23367D01*
X83359Y-23386D01*
X83341Y-23413D01*
X83319Y-23444D01*
X83301Y-23471D01*
X83282Y-23500D01*
X83270Y-23521D01*
X83265Y-23532D01*
X83266Y-23536D01*
X83273Y-23553D01*
X83283Y-23580D01*
X83296Y-23611D01*
X83327Y-23681D01*
X83373Y-23689D01*
X83401Y-23695D01*
X83440Y-23702D01*
X83477Y-23709D01*
X83535Y-23721D01*
X83537Y-23933D01*
X83528Y-23937D01*
X83519Y-23940D01*
X83498Y-23944D01*
X83467Y-23950D01*
X83431Y-23957D01*
X83400Y-23963D01*
X83369Y-23969D01*
X83347Y-23973D01*
X83337Y-23975D01*
X83334Y-23979D01*
X83326Y-23994D01*
X83315Y-24018D01*
X83303Y-24047D01*
X83291Y-24076D01*
X83280Y-24104D01*
X83272Y-24125D01*
X83269Y-24136D01*
X83273Y-24144D01*
X83285Y-24162D01*
X83302Y-24188D01*
X83323Y-24219D01*
X83345Y-24250D01*
X83362Y-24277D01*
X83375Y-24296D01*
X83380Y-24304D01*
X83377Y-24310D01*
X83365Y-24325D01*
X83342Y-24349D01*
X83307Y-24384D01*
X83301Y-24389D01*
X83274Y-24416D01*
X83250Y-24437D01*
X83234Y-24452D01*
X83227Y-24457D01*
X83227Y-24457D01*
G37*
M02*
