M48
INCH,TZ
T1C0.032
T2C0.040
T3C0.126
%
G90
G05
T1
X8.175Y-2.2
X8.175Y-2.6
X8.175Y-2.7
X8.225Y-2.825
X8.275Y-2.2
X8.275Y-2.6
X8.275Y-2.875
X8.325Y-2.825
X8.375Y-2.2
X8.375Y-2.6
X8.375Y-2.7
X8.5Y-2.1
X8.5Y-2.2
X8.5Y-2.3
X8.5Y-2.4
X8.5Y-2.6
X8.5Y-2.7
X8.5Y-2.8
X8.5Y-2.9
X8.8Y-2.1
X8.8Y-2.2
X8.8Y-2.3
X8.8Y-2.4
X8.8Y-2.6
X8.8Y-2.7
X8.8Y-2.8
X8.8Y-2.9
X8.925Y-2.3
X8.925Y-2.4
X8.925Y-2.8
X8.975Y-2.175
X9.025Y-2.125
X9.025Y-2.4
X9.025Y-2.8
X9.075Y-2.175
X9.125Y-2.3
X9.125Y-2.4
X9.125Y-2.8
T2
X7.95Y-2.35
X7.95Y-2.45
X7.95Y-2.55
X7.95Y-2.65
X9.35Y-2.35
X9.35Y-2.45
X9.35Y-2.55
X9.35Y-2.65
T3
X7.95Y-2.15
X7.95Y-2.85
X9.35Y-2.15
X9.35Y-2.85
T0
M30
